<?xml version="1.0" standalone="no"?>
<!DOCTYPE svg PUBLIC "-//W3C//DTD SVG 20010904//EN"
 "http://www.w3.org/TR/2001/REC-SVG-20010904/DTD/svg10.dtd">
<svg version="1.0" xmlns="http://www.w3.org/2000/svg"
 width="612.000000pt" height="612.000000pt" viewBox="0 0 612.000000 612.000000"
 preserveAspectRatio="xMidYMid meet">
<metadata>
Created by potrace 1.14, written by Peter Selinger 2001-2017
</metadata>
<g transform="translate(0.000000,612.000000) scale(0.100000,-0.100000)"
fill="#000000" stroke="none">
<path d="M2863 5065 c-138 -25 -241 -70 -333 -144 -207 -168 -317 -443 -356
-893 -5 -59 -8 -68 -25 -68 -66 0 -44 -230 42 -435 25 -58 47 -92 81 -125 39
-37 57 -68 103 -175 67 -154 145 -306 209 -401 43 -66 46 -74 56 -170 22 -211
-27 -359 -168 -507 -68 -70 -98 -86 -330 -176 -522 -201 -759 -320 -893 -448
-74 -71 -97 -124 -76 -175 63 -151 551 -256 1382 -299 295 -15 1028 -6 1290
16 647 53 1025 147 1098 272 27 47 15 86 -46 150 -115 121 -358 245 -952 483
-226 91 -261 109 -306 157 -169 180 -215 330 -175 574 12 71 21 96 59 155 52
81 149 272 202 399 29 71 47 100 86 135 50 46 84 110 129 240 47 139 48 310 2
327 -26 10 -32 24 -32 82 0 74 -26 246 -56 368 -92 379 -305 601 -629 658
-104 18 -263 18 -362 0z"/>
</g>
</svg>
